<svg xmlns="http://www.w3.org/2000/svg" fill="none" viewBox="0 0 412 412"><path fill="#2F80ED" fill-rule="evenodd" d="M412 128.314c0-4.891.002-9.783-.028-14.674a585.24 585.24 0 0 0-.184-12.359c-.242-8.976-.772-18.03-2.368-26.906-1.619-9.005-4.263-17.385-8.429-25.567a86.027 86.027 0 0 0-37.618-37.6c-8.19-4.167-16.58-6.81-25.594-8.428-8.877-1.594-17.933-2.123-26.91-2.365a592.72 592.72 0 0 0-12.365-.184c-4.894-.03-9.788-.028-14.682-.028L226.998 0h-42.499l-55.818.203c-4.904 0-9.807-.002-14.711.028-4.131.025-8.26.072-12.389.184-8.998.242-18.074.772-26.973 2.367C65.582 4.4 57.18 7.042 48.98 11.207a86.203 86.203 0 0 0-21.834 15.822 86.004 86.004 0 0 0-15.859 21.776c-4.178 8.185-6.827 16.57-8.45 25.58C1.238 83.258.71 92.31.466 101.281A592.145 592.145 0 0 0 .28 113.64C.251 118.532 0 124.608 0 129.5l.001 55.044L0 227.499l.254 56.214c0 4.898-.002 9.796.027 14.694.025 4.126.073 8.251.185 12.376.243 8.988.773 18.054 2.373 26.943 1.622 9.016 4.271 17.409 8.445 25.601a86.192 86.192 0 0 0 37.69 37.651c8.207 4.173 16.613 6.82 25.645 8.44 8.894 1.596 17.968 2.126 26.962 2.368 4.129.112 8.259.159 12.39.184 4.903.03 9.806.029 14.71.029l56.322.001h42.605l56.214-.002c4.894 0 9.788.002 14.682-.028 4.122-.025 8.244-.072 12.365-.184 8.98-.243 18.039-.772 26.92-2.37 9.009-1.62 17.395-4.266 25.58-8.436a86 86 0 0 0 21.791-15.844 86.083 86.083 0 0 0 15.829-21.806c4.169-8.196 6.813-16.592 8.433-25.615 1.595-8.885 2.124-17.948 2.366-26.932.112-4.125.159-8.25.184-12.376.03-4.898.028-9.796.028-14.694l-.003-56.214v-43l.003-56.185" clip-rule="evenodd"/><path fill="#fff" d="M124.244 354.625c-10.477 0-19.45-3.734-26.917-11.202-7.468-7.467-11.202-16.44-11.202-26.917 0-10.7 3.734-19.728 11.202-27.084 7.467-7.356 16.44-11.035 26.917-11.035 3.121 0 5.851.279 8.192.836 2.341.558 4.737 1.394 7.189 2.508l28.422-35.444c-4.236-5.127-7.468-10.978-9.697-17.554-2.229-6.576-2.786-13.431-1.672-20.564l-40.459-13.71c-3.344 5.573-7.747 9.92-13.208 13.041-5.462 3.121-11.759 4.681-18.892 4.681-10.477 0-19.45-3.734-26.917-11.201C49.734 193.512 46 184.54 46 174.062c0-10.7 3.734-19.728 11.202-27.084 7.467-7.356 16.44-11.034 26.917-11.034 10.7 0 19.728 3.678 27.084 11.034 7.356 7.356 11.034 16.384 11.034 27.084v1.338l40.794 14.044c4.013-7.134 8.861-12.595 14.546-16.385 5.684-3.789 11.981-6.464 18.892-8.025V121.9c-8.694-2.452-15.549-7.245-20.564-14.378-5.016-7.133-7.524-14.601-7.524-22.403 0-10.7 3.734-19.728 11.202-27.085C187.051 50.678 196.023 47 206.5 47c10.7 0 19.728 3.678 27.084 11.034 7.357 7.357 11.035 16.385 11.035 27.085 0 7.802-2.564 15.27-7.691 22.403-5.127 7.133-11.926 11.926-20.397 14.378v43.134c6.911 1.561 13.264 4.236 19.06 8.025 5.795 3.79 10.7 9.251 14.712 16.385l40.459-14.044v-1.338c0-10.7 3.734-19.728 11.202-27.084 7.468-7.356 16.44-11.034 26.917-11.034 10.7 0 19.728 3.678 27.085 11.034 7.356 7.356 11.034 16.384 11.034 27.084 0 10.478-3.678 19.45-11.034 26.918-7.357 7.467-16.385 11.201-27.085 11.201-7.133 0-13.486-1.56-19.059-4.681s-9.92-7.468-13.041-13.041l-40.459 13.71c1.114 7.133.613 13.988-1.505 20.564-2.118 6.576-5.406 12.427-9.864 17.554l28.422 35.444c2.452-1.114 4.848-1.95 7.189-2.508 2.341-.557 5.071-.836 8.192-.836 10.7 0 19.728 3.679 27.085 11.035 7.356 7.356 11.034 16.384 11.034 27.084 0 10.477-3.678 19.45-11.034 26.917-7.357 7.468-16.385 11.202-27.085 11.202-10.477 0-19.449-3.734-26.917-11.202-7.468-7.467-11.201-16.44-11.201-26.917 0-4.458.613-8.471 1.839-12.037 1.226-3.567 2.953-7.022 5.182-10.366l-28.422-35.444c-7.133 3.79-14.768 5.685-22.904 5.685-8.137 0-15.772-1.895-22.905-5.685l-28.087 35.779c2.229 3.343 3.956 6.743 5.182 10.198 1.226 3.455 1.839 7.412 1.839 11.87 0 10.477-3.678 19.45-11.034 26.917-7.356 7.468-16.384 11.202-27.084 11.202ZM84.119 192.119c5.127 0 9.418-1.728 12.873-5.183s5.183-7.746 5.183-12.874c0-5.127-1.728-9.418-5.183-12.873s-7.746-5.183-12.873-5.183c-5.127 0-9.418 1.728-12.874 5.183-3.455 3.455-5.183 7.746-5.183 12.873 0 5.128 1.728 9.419 5.183 12.874 3.456 3.455 7.747 5.183 12.874 5.183Zm40.125 142.443c5.127 0 9.418-1.727 12.873-5.182 3.455-3.456 5.183-7.747 5.183-12.874 0-5.127-1.728-9.418-5.183-12.873s-7.746-5.183-12.873-5.183c-5.127 0-9.418 1.728-12.874 5.183-3.455 3.455-5.182 7.746-5.182 12.873 0 5.127 1.727 9.418 5.182 12.874 3.456 3.455 7.747 5.182 12.874 5.182ZM206.5 103.175c5.127 0 9.418-1.728 12.873-5.183 3.456-3.455 5.183-7.746 5.183-12.873 0-5.127-1.727-9.418-5.183-12.874-3.455-3.455-7.746-5.183-12.873-5.183-5.127 0-9.418 1.728-12.873 5.183-3.456 3.456-5.183 7.747-5.183 12.874 0 5.127 1.727 9.418 5.183 12.873 3.455 3.455 7.746 5.183 12.873 5.183Zm.334 141.106c8.248 0 15.27-2.953 21.066-8.861 5.796-5.907 8.694-13.096 8.694-21.567 0-8.248-2.898-15.27-8.694-21.066-5.796-5.795-12.929-8.693-21.4-8.693-8.248 0-15.326 2.898-21.233 8.693-5.907 5.796-8.861 12.93-8.861 21.401 0 8.247 2.954 15.325 8.861 21.232 5.907 5.908 13.097 8.861 21.567 8.861Zm81.922 90.281c5.127 0 9.418-1.727 12.874-5.182 3.455-3.456 5.182-7.747 5.182-12.874 0-5.127-1.727-9.418-5.182-12.873-3.456-3.455-7.747-5.183-12.874-5.183-5.127 0-9.418 1.728-12.873 5.183s-5.183 7.746-5.183 12.873c0 5.127 1.728 9.418 5.183 12.874 3.455 3.455 7.746 5.182 12.873 5.182Zm40.125-142.443c5.127 0 9.418-1.728 12.874-5.183 3.455-3.455 5.183-7.746 5.183-12.874 0-5.127-1.728-9.418-5.183-12.873-3.456-3.455-7.747-5.183-12.874-5.183-5.127 0-9.418 1.728-12.873 5.183s-5.183 7.746-5.183 12.873c0 5.128 1.728 9.419 5.183 12.874s7.746 5.183 12.873 5.183Z"/></svg>