<?xml version="1.0" standalone="no"?>
<!DOCTYPE svg PUBLIC "-//W3C//DTD SVG 20010904//EN"
 "http://www.w3.org/TR/2001/REC-SVG-20010904/DTD/svg10.dtd">
<svg version="1.0" xmlns="http://www.w3.org/2000/svg"
 width="512.000000pt" height="512.000000pt" viewBox="0 0 512.000000 512.000000"
 preserveAspectRatio="xMidYMid meet">
<metadata>
Created by potrace 1.14, written by Peter Selinger 2001-2017
</metadata>
<g transform="translate(0.000000,512.000000) scale(0.100000,-0.100000)"
fill="#000000" stroke="none">
<path d="M4435 5106 c-210 -53 -375 -222 -418 -427 -24 -115 -9 -254 35 -343
l20 -39 -459 -459 -458 -458 -51 34 c-50 34 -149 80 -209 97 -96 28 -267 30
-369 4 -79 -20 -172 -61 -236 -104 l-45 -31 -357 357 -356 356 21 46 c17 36
21 66 22 141 0 82 -4 103 -26 150 -64 138 -192 221 -339 221 -146 1 -275 -83
-338 -220 -35 -74 -40 -191 -12 -270 40 -112 135 -202 247 -235 69 -20 173
-14 241 13 l52 21 356 -356 356 -355 -33 -51 c-164 -255 -163 -575 3 -816 l31
-44 -591 -591 -590 -590 -39 30 c-160 127 -390 149 -578 57 -202 -99 -319
-293 -311 -519 17 -488 605 -717 951 -371 58 59 129 177 141 236 2 14 8 44 13
66 9 44 6 147 -4 204 -4 19 -18 61 -31 94 l-24 58 594 594 c327 327 597 594
601 594 4 0 19 -8 33 -19 75 -52 168 -92 267 -114 l60 -14 1 -471 0 -471 -65
-20 c-144 -44 -264 -145 -332 -277 -50 -96 -64 -154 -63 -264 1 -155 53 -277
164 -388 286 -283 762 -177 912 203 27 70 31 92 32 180 1 114 -12 170 -62 270
-64 129 -209 244 -358 284 l-41 11 1 472 1 472 55 12 c98 21 179 56 287 124
20 13 39 -4 378 -344 258 -258 354 -360 347 -369 -18 -21 -43 -124 -44 -176
-1 -206 180 -378 387 -366 145 9 250 78 318 210 29 55 31 68 32 155 0 82 -4
103 -27 152 -77 166 -249 251 -423 211 -33 -8 -69 -20 -81 -28 -20 -13 -41 6
-378 344 l-358 358 35 54 c107 167 144 360 105 546 -18 87 -72 215 -113 269
-14 18 -25 36 -25 39 0 4 201 208 448 454 l447 448 62 -42 c280 -194 659 -96
811 208 45 90 50 107 58 217 9 111 -15 207 -82 331 -22 42 -116 134 -175 171
-85 55 -169 80 -279 83 -54 2 -117 -2 -145 -9z m286 -213 c83 -41 134 -92 173
-173 28 -59 31 -74 31 -160 0 -82 -4 -103 -27 -152 -95 -202 -343 -277 -533
-160 -212 131 -232 440 -38 599 71 58 144 82 243 80 74 -2 95 -6 151 -34z
m-3407 -461 c95 -66 107 -203 23 -283 -85 -81 -229 -60 -287 44 -56 100 -3
233 107 267 44 14 114 2 157 -28z m1526 -1099 c261 -76 427 -303 415 -568 -13
-301 -278 -542 -580 -528 -342 15 -590 337 -520 673 42 200 211 375 411 425
70 17 211 16 274 -2z m1452 -1879 c150 -105 78 -334 -104 -334 -106 0 -187 86
-182 191 7 146 168 226 286 143z m-3622 -356 c84 -26 176 -103 215 -178 54
-105 57 -232 7 -332 -38 -75 -53 -94 -114 -140 -164 -126 -417 -82 -527 91
-105 164 -74 370 76 495 87 73 232 100 343 64z m2152 -191 c165 -63 258 -205
245 -375 -25 -328 -430 -463 -647 -216 -74 85 -107 221 -80 334 49 204 286
330 482 257z"/>
</g>
</svg>
